Coordinates
nRows=177
nColumns=2
inDegrees=yes
endheader
time	ankle_angle_r	
2.93731	 19.653232	
2.99981	 19.695186	
3.0623	 19.634446	
3.1248	 19.621817	
3.1873	 19.662648	
3.24979	 19.686019	
3.31229	 19.727543	
3.37478	 19.748985	
3.43728	 19.733745	
3.49978	 19.702374	
3.56227	 19.651579	
3.62477	 19.638466	
3.68726	 19.644689	
3.74976	 19.644754	
3.81226	 19.693056	
3.87475	 19.712849	
3.93725	 19.656407	
3.99974	 19.610211	
4.06224	 19.602109	
4.12474	 19.624721	
4.18723	 19.640080	
4.24973	 19.645733	
4.31222	 19.689768	
4.37472	 19.729087	
4.43722	 19.723830	
4.49971	 19.684057	
4.56221	 19.634609	
4.6247	 19.598327	
4.6872	 19.594456	
4.7497	 19.676234	
4.81219	 19.754645	
4.87469	 19.724626	
4.93718	 19.679616	
4.99968	 19.637866	
5.06218	 19.601314	
5.12467	 19.641613	
5.18717	 19.655354	
5.24966	 19.618008	
5.31216	 19.653287	
5.37466	 19.693440	
5.43715	 19.664096	
5.49965	 19.622795	
5.56214	 19.601248	
5.62464	 19.588561	
5.68714	 19.573287	
5.74963	 19.636363	
5.81213	 19.742222	
5.87462	 19.732527	
5.93712	 19.695294	
5.99962	 19.685247	
6.06211	 19.613771	
6.12461	 19.554193	
6.1871	 19.582793	
6.2496	 19.670398	
6.3121	 19.698995	
6.37459	 19.640007	
6.43709	 19.656030	
6.49958	 19.701419	
6.56208	 19.651168	
6.62458	 19.618284	
6.68707	 19.666812	
6.74957	 19.734267	
6.81206	 19.757269	
6.87456	 19.728766	
6.93706	 19.692666	
6.99955	 19.627641	
7.06205	 19.562084	
7.12454	 19.565172	
7.18704	 19.600209	
7.24954	 19.651872	
7.31203	 19.691792	
7.37453	 19.674748	
7.43702	 19.676704	
7.49952	 19.691816	
7.56202	 19.645318	
7.62451	 19.614298	
7.68701	 19.628464	
7.7495	 19.631359	
7.812	 19.642520	
7.8745	 19.664871	
7.93699	 19.668995	
7.99949	 19.643852	
8.06198	 19.615401	
8.12448	 19.618029	
8.18698	 19.615726	
8.24947	 19.618168	
8.31197	 19.685066	
8.37446	 19.749750	
8.43696	 19.705769	
8.49946	 19.622986	
8.56195	 19.613851	
8.62445	 19.627902	
8.68694	 19.643054	
8.74944	 19.676353	
8.81194	 19.671700	
8.87443	 19.658829	
8.93693	 19.655211	
8.99942	 19.619444	
9.06192	 19.623015	
9.12442	 19.672494	
9.18691	 19.681682	
9.24941	 19.679130	
9.3119	 19.698682	
9.3744	 19.714993	
9.4369	 19.704422	
9.49939	 19.674184	
9.56189	 19.653467	
9.62438	 19.634957	
9.68688	 19.645551	
9.74938	 19.673934	
9.81187	 19.668335	
9.87437	 19.681329	
9.93686	 19.708340	
9.99936	 19.697489	
10.0619	 19.637082	
10.1244	 19.549363	
10.1868	 19.588212	
10.2493	 19.699480	
10.3118	 19.680195	
10.3743	 19.658755	
10.4368	 19.673856	
10.4993	 19.613341	
10.5618	 19.582754	
10.6243	 19.614232	
10.6868	 19.669353	
10.7493	 19.704497	
10.8118	 19.659026	
10.8743	 19.658092	
10.9368	 19.708106	
10.9993	 19.666434	
11.0618	 19.589208	
11.1243	 19.582046	
11.1868	 19.655051	
11.2493	 19.687354	
11.3118	 19.628373	
11.3743	 19.646001	
11.4368	 19.704491	
11.4993	 19.669514	
11.5618	 19.614726	
11.6243	 19.568064	
11.6868	 19.547398	
11.7492	 19.580374	
11.8117	 19.592142	
11.8742	 19.591936	
11.9367	 19.594435	
11.9992	 19.550041	
12.0617	 19.502427	
12.1242	 19.495069	
12.1867	 19.522047	
12.2492	 19.563913	
12.3117	 19.586516	
12.3742	 19.579238	
12.4367	 19.540567	
12.4992	 19.508942	
12.5617	 19.504180	
12.6242	 19.499120	
12.6867	 19.524378	
12.7492	 19.569802	
12.8117	 19.582407	
12.8742	 19.570051	
12.9367	 19.533529	
12.9992	 19.498882	
13.0617	 19.512855	
13.1242	 19.564300	
13.1867	 19.612076	
13.2492	 19.643900	
13.3116	 19.693432	
13.3741	 19.700103	
13.4366	 19.621301	
13.4991	 19.589446	
13.5616	 19.621955	
13.6241	 19.662858	
13.6866	 19.713287	
13.7491	 19.710821	
13.8116	 19.718392	
13.8741	 19.728243	
13.9366	 19.561774	
